<svg width="31" height="31" viewBox="0 0 31 31" fill="none" xmlns="http://www.w3.org/2000/svg">
<path d="M10.332 18.084C14.6122 18.084 18.082 14.6142 18.082 10.334C18.082 6.05378 14.6122 2.58398 10.332 2.58398C6.05182 2.58398 2.58203 6.05378 2.58203 10.334C2.58203 14.6142 6.05182 18.084 10.332 18.084Z" stroke="#FFB053" stroke-width="1.66667" stroke-linecap="round" stroke-linejoin="round"/>
<path d="M23.3659 13.3945C24.5869 13.8498 25.6734 14.6055 26.525 15.5919C27.3765 16.5783 27.9656 17.7635 28.2377 19.0379C28.5098 20.3123 28.4562 21.6347 28.0818 22.8829C27.7074 24.1311 27.0243 25.2647 26.0957 26.1789C25.1671 27.0932 24.023 27.7585 22.7691 28.1134C21.5152 28.4682 20.1921 28.5012 18.9221 28.2092C17.6522 27.9173 16.4763 27.3098 15.5033 26.4429C14.5303 25.5761 13.7916 24.4779 13.3555 23.2499" stroke="#FFB053" stroke-width="1.66667" stroke-linecap="round" stroke-linejoin="round"/>
<path d="M9.04297 7.75H10.3346V12.9167" stroke="#FFB053" stroke-width="1.66667" stroke-linecap="round" stroke-linejoin="round"/>
<path d="M21.5821 17.9277L22.4862 18.8448L18.8438 22.4873" stroke="#FFB053" stroke-width="1.66667" stroke-linecap="round" stroke-linejoin="round"/>
</svg>
