<svg width="35" height="35" viewBox="0 0 35 35" fill="none" xmlns="http://www.w3.org/2000/svg">
<path d="M14.8056 30.2988C15.057 30.7376 15.4194 31.1025 15.8565 31.3568C16.2935 31.6111 16.7898 31.7459 17.2955 31.7476C17.8012 31.7494 18.2984 31.618 18.7372 31.3666C19.176 31.1153 19.5409 30.7529 19.7952 30.3159" stroke="#90A1B9" stroke-width="1.66667" stroke-linecap="round" stroke-linejoin="round"/>
<path d="M4.74137 22.0929C4.55249 22.2985 4.42744 22.5545 4.38141 22.8299C4.33539 23.1053 4.37038 23.3881 4.48213 23.6439C4.59388 23.8998 4.77757 24.1176 5.01086 24.271C5.24415 24.4244 5.51698 24.5066 5.79616 24.5078L28.843 24.5865C29.1221 24.5876 29.3956 24.5075 29.63 24.356C29.8645 24.2045 30.0499 23.9882 30.1637 23.7333C30.2775 23.4784 30.3148 23.1959 30.271 22.9202C30.2272 22.6445 30.1043 22.3874 29.9171 22.1803C28.0081 20.199 25.9843 18.0933 26.0064 11.6128C26.0142 9.3207 25.1112 7.11932 23.4959 5.49299C21.8807 3.86666 19.6855 2.9486 17.3934 2.94077C15.1012 2.93294 12.8999 3.83598 11.2735 5.45124C9.6472 7.06649 8.72913 9.26165 8.7213 11.5538C8.69916 18.0343 6.65955 20.126 4.74137 22.0929Z" stroke="#90A1B9" stroke-width="1.66667" stroke-linecap="round" stroke-linejoin="round"/>
<rect x="16.915" y="1.07227" width="16.9608" height="16.9608" rx="8.48041" transform="rotate(0.195747 16.915 1.07227)" fill="#90A1B9"/>
<path d="M25.352 13.2414C24.7412 13.237 24.2161 13.0849 23.7768 12.7851C23.3399 12.4853 23.004 12.0521 22.7692 11.4854C22.5367 10.9188 22.4231 10.2378 22.4281 9.44236C22.4309 8.64928 22.5504 7.97379 22.7866 7.41588C23.0253 6.85798 23.3641 6.43418 23.8031 6.14449C24.2444 5.85243 24.7693 5.70744 25.3777 5.70952C25.9861 5.7116 26.5088 5.86017 26.9458 6.15522C27.3851 6.45029 27.7222 6.87758 27.957 7.43709C28.1919 7.99424 28.3068 8.66936 28.3017 9.46243C28.299 10.2602 28.1783 10.9417 27.9396 11.5067C27.7033 12.0717 27.3656 12.5026 26.9266 12.7994C26.4877 13.0962 25.9628 13.2435 25.352 13.2414ZM25.3563 11.9666C25.773 11.968 26.1063 11.7596 26.3563 11.3414C26.6064 10.9233 26.7316 10.2951 26.7321 9.45707C26.734 8.90546 26.6787 8.44599 26.5664 8.07865C26.4563 7.71132 26.2987 7.43498 26.0933 7.24962C25.8904 7.06426 25.6504 6.97111 25.3734 6.97017C24.9591 6.96875 24.627 7.17477 24.377 7.58822C24.127 8.00166 23.9994 8.6215 23.9942 9.44771C23.9923 10.0064 24.0463 10.473 24.1563 10.8474C24.2687 11.2195 24.4275 11.4994 24.6328 11.6871C24.8382 11.8725 25.0793 11.9656 25.3563 11.9666Z" fill="white"/>
</svg>
