<svg width="31" height="31" viewBox="0 0 31 31" fill="none" xmlns="http://www.w3.org/2000/svg">
<path d="M5.16536 25.8333H25.832C26.5172 25.8333 27.1743 25.5612 27.6587 25.0767C28.1432 24.5922 28.4154 23.9351 28.4154 23.25V10.3333C28.4154 9.64819 28.1432 8.99111 27.6587 8.50664C27.1743 8.02217 26.5172 7.75 25.832 7.75H15.5891C15.1636 7.7478 14.7453 7.64053 14.3712 7.43773C13.9971 7.23492 13.679 6.94287 13.4449 6.5875L12.3858 5.0375C12.1518 4.68213 11.8336 4.39008 11.4595 4.18727C11.0855 3.98447 10.6671 3.8772 10.2416 3.875H5.16536C4.48022 3.875 3.82314 4.14717 3.33867 4.63164C2.8542 5.11611 2.58203 5.77319 2.58203 6.45833V23.25C2.58203 24.6708 3.74453 25.8333 5.16536 25.8333Z" stroke="#3EB33E" stroke-width="1.66667" stroke-linecap="round" stroke-linejoin="round"/>
<path d="M10.332 12.916V18.0827" stroke="#3EB33E" stroke-width="1.66667" stroke-linecap="round" stroke-linejoin="round"/>
<path d="M15.5 12.916V15.4993" stroke="#3EB33E" stroke-width="1.66667" stroke-linecap="round" stroke-linejoin="round"/>
<path d="M20.668 12.916V20.666" stroke="#3EB33E" stroke-width="1.66667" stroke-linecap="round" stroke-linejoin="round"/>
</svg>
